# xmcd
#
# Track frame offsets:
#	187
#	11985
#	26290
#	40162
#	57622
#	70492
#	84125
#	99715
#	114982
#	127422
#
# Disc length: 1914 seconds
#
# Revision: 7
# Processed by: cddbd v1.5.1PL2 Copyright (c) Steve Scherf et al.
# Submitted via: dBpowerAMP V4.0
#
DISCID=8807780a
DTITLE=George Strait - Easy Come, Easy Go
DYEAR=1993
DGENRE=Country
TTITLE0=Stay Out Of My Arms
TTITLE1=Just Look At Me
TTITLE2=Easy Come, Easy Go 
TTITLE3=I'd Like To Have That One Back
TTITLE4=Lovebug
TTITLE5=I Wasn't Fooling Around
TTITLE6=Without Me Around
TTITLE7=The Man In Love With You
TTITLE8=That's Where My Baby Feels At Home
TTITLE9=We Must Be Loving Right
EXTD=YEAR - 1993\nMCA Records  MCAD-10907
EXTT0=
EXTT1=
EXTT2=
EXTT3=
EXTT4=
EXTT5=
EXTT6=
EXTT7=
EXTT8=
EXTT9=
PLAYORDER=
